<?xml version="1.0" encoding="utf-8"?>
<!-- Generator: Adobe Illustrator 18.1.1, SVG Export Plug-In . SVG Version: 6.00 Build 0)  -->
<!DOCTYPE svg PUBLIC "-//W3C//DTD SVG 1.1//EN" "http://www.w3.org/Graphics/SVG/1.1/DTD/svg11.dtd">
<svg version="1.1" id="Icon" xmlns="http://www.w3.org/2000/svg" xmlns:xlink="http://www.w3.org/1999/xlink" x="0px" y="0px"
	 width="96px" height="96px" viewBox="0 0 96 96" enable-background="new 0 0 96 96" xml:space="preserve">
<g id="Grey">
	<g id="Archery_2_">
		<path opacity="0.05" d="M48,0C35.18,0,23.12,4.99,14.06,14.06S0,35.18,0,48c0,12.82,4.99,24.88,14.06,33.94
			C23.12,91.01,35.18,96,48,96c12.82,0,24.88-4.99,33.94-14.06C91.01,72.88,96,60.82,96,48c0-12.82-4.99-24.88-14.06-33.94
			C72.88,4.99,60.82,0,48,0L48,0z"/>
		<path opacity="0.54" d="M72.85,31.37c-0.4,0.46-2.19,0.56-2.19,0.56s-1.64,0.23-7.17,0.34c0,0.35-0.02,0.7-0.03,1.05
			c1.35-0.12,2.63,0.19,2.86,1.2c0.18,0.81-0.34,1.58-0.81,1.97c-0.47,0.39-1.1,0.78-2.48,0.98c-0.75,4.98-3.19,11.24-6.63,14.76
			c-0.33,0.33-0.79,0.41-0.99,0.32c-0.15-0.07-0.12-0.24,0.1-0.51c3.48-4.2,5.18-10.68,5.76-14.37c-5.41,0.56-10.99,0.95-16.19,1.07
			c-0.11,2.39-0.42,6.15-0.19,11.22c0.68,15.01,4.02,26.95,4.27,28.59c0.14,0.91-0.05,2.38-1.82,2.76
			c-1.27,0.28-2.58-0.12-2.98-1.24c-0.5-1.38-0.92-5.97-2.56-17.95c-0.26-1.88-0.67-4.18-0.94-5.72c-0.15-0.84-0.18-1.2-0.62-1.2
			c-0.56-0.01-0.56,0.75-0.78,2.01c-0.94,5.43-2.35,19.84-2.48,20.66c-0.39,2.5-1.41,3.41-3.23,3.18c-1.77-0.22-2.34-1.51-1.98-3.34
			c0.19-0.95,3.44-13.36,3.93-30.53c0.06-2.13,0.07-6.2-0.17-8.56c-2.96-0.18-5.59-0.5-7.72-1c-2.87-0.68-5.72-2.53-4.59-6.8
			c1.03-3.91,6.14-3.76,7.02-3.68c0.71,0.06,2.29,0.25,3.5,0.97c0.98,0.67,0.94,1.6,0.41,2.49c-0.37,0.61-1.44,1.46-2.56,0.85
			c-3.1-1.7-4.56-0.73-5,0.65c-0.38,1.21,0.68,2.48,2.56,2.78c9.69,1.54,25.21-0.04,32.54-1.25c0.02-0.43,0.04-0.87,0.05-1.3
			c-3.59,0.05-8.51,0.05-15.17-0.07c-0.38,0-0.56-0.24-0.52-0.4c0.05-0.22,0.29-0.35,1.04-0.34c6.25,0.19,11.04,0.18,14.66,0.08
			c0.02-5.29-0.82-10.43-3.41-16.12c-0.16-0.35-0.6-0.91-0.03-0.84c0.34,0.05,0.79,0.42,1.23,1.15c1.59,2.62,3.88,7.77,3.95,15.76
			c5.48-0.2,7.8-0.61,8.4-0.67C71.9,30.85,73.53,30.59,72.85,31.37z M39.87,34.24c0.67-0.03,2.38-0.49,2.94-2.59
			c0.51-1.92-0.55-3.99-2.15-4.45c-1.68-0.49-3.52,0.5-4.03,2.47C36.08,31.84,37.37,34.35,39.87,34.24z"/>
	</g>
</g>
</svg>
