<?xml version="1.0" encoding="utf-8"?>
<!-- Generator: Adobe Illustrator 18.1.1, SVG Export Plug-In . SVG Version: 6.00 Build 0)  -->
<!DOCTYPE svg PUBLIC "-//W3C//DTD SVG 1.1//EN" "http://www.w3.org/Graphics/SVG/1.1/DTD/svg11.dtd">
<svg version="1.1" id="Icon" xmlns="http://www.w3.org/2000/svg" xmlns:xlink="http://www.w3.org/1999/xlink" x="0px" y="0px"
	 width="96px" height="96px" viewBox="0 0 96 96" enable-background="new 0 0 96 96" xml:space="preserve">
<g id="Grey">
	<g id="Basketball_2_">
		<path opacity="0.05" d="M48,0C35.18,0,23.12,4.99,14.06,14.06S0,35.18,0,48c0,12.82,4.99,24.88,14.06,33.94
			C23.12,91.01,35.18,96,48,96c12.82,0,24.88-4.99,33.94-14.06C91.01,72.88,96,60.82,96,48c0-12.82-4.99-24.88-14.06-33.94
			C72.88,4.99,60.82,0,48,0L48,0z"/>
		<path opacity="0.54" d="M77.83,30.08c-0.75,1.62-5.19,2.41-8.99,2.36c-7.79-0.1-12.16-4.02-5.24-5.63
			c5.16-1.2,9.96-0.16,10.83,0.15c1.15,0.43,0.21,0.79-0.59,0.62c-0.56-0.1-4.65-1.28-9.62-0.1c-5.43,1.29-0.83,3.62,4.68,3.68
			c4.46,0.05,7.15-0.71,7.58-1.75c0.13-0.47-0.29-0.69-0.21-0.97c0.07-0.27,0.52-0.41,0.88-0.24
			C77.86,28.56,78.13,29.42,77.83,30.08z M54.22,57.64c1.66,3.37,1.65,7.47-1.02,9.23c-0.63,0.41-1.59,0.56-2.81,0.22
			c-1.62-0.47-5.99-1.73-9.94-1.86c-0.01,0-0.01,0.01-0.02,0.01c-4.09,2.81-12.14,7.54-14.79,8.18c-1.55,0.38-3.73-0.4-3.78-2.17
			c-0.03-1.12,1.5-1.66,2.27-1.95c4.13-1.59,8.4-3.58,11.17-5.35c4.52-2.89,6.13-8.21,6.55-12.52c0.57-5.78-1.53-12.08-6.74-12.76
			c-2.11-0.28-3.08-0.25-5.41-0.56c-8.44-1.13-11.12-6.53-11.54-8.23c-0.59-2.4,1.26-3.85,2.18-3.59c0.01-0.06,0.42-3.1,4.04-3.7
			c3.57-0.6,7.04,2.4,6.25,5.93c-0.7,3.15-4.72,4.77-8.04,2.68c2.98,4.38,9.66,3.57,14.82,3.55c6.13-0.02,10.02,1.4,11.14,7.81
			c0.32,1.84,0.19,6.74-0.51,9.15C50.55,52.81,52.82,54.79,54.22,57.64z M22.62,29.29c1.1,1.68,3.24,2.05,4.71,1.16
			c1.82-1.1,2.32-3.27,1.12-5.07c-1.2-1.79-3.34-2.01-4.73-1.15C21.74,25.46,21.58,27.71,22.62,29.29z M46.26,56.84
			c-0.77,1.79-1.93,4.05-3.39,5.98c1.37,0.06,3.11,0.21,5.47,0.48c0.66,0.08,1.02-0.1,1.28-0.57
			C50.21,61.63,49.91,58.31,46.26,56.84z M47.37,32.98c0.32-0.59,0.75-2.23-0.69-3.84c-1.21-1.36-3.5-1.73-4.91-0.47
			c-1.3,1.17-1.39,3.26,0.03,4.71C43.37,34.98,46.18,35.17,47.37,32.98z"/>
	</g>
</g>
</svg>
