<?xml version="1.0" encoding="utf-8"?>
<!-- Generator: Adobe Illustrator 18.1.1, SVG Export Plug-In . SVG Version: 6.00 Build 0)  -->
<!DOCTYPE svg PUBLIC "-//W3C//DTD SVG 1.1//EN" "http://www.w3.org/Graphics/SVG/1.1/DTD/svg11.dtd">
<svg version="1.1" id="Icon" xmlns="http://www.w3.org/2000/svg" xmlns:xlink="http://www.w3.org/1999/xlink" x="0px" y="0px"
	 width="96px" height="96px" viewBox="0 0 96 96" enable-background="new 0 0 96 96" xml:space="preserve">
<g id="Grey">
	<g id="Beach_Volleyball_2_">
		<path opacity="0.05" d="M48,0C35.18,0,23.12,4.99,14.06,14.06S0,35.18,0,48c0,12.82,4.99,24.88,14.06,33.94
			C23.12,91.01,35.18,96,48,96c12.82,0,24.88-4.99,33.94-14.06C91.01,72.88,96,60.82,96,48c0-12.82-4.99-24.88-14.06-33.94
			C72.88,4.99,60.82,0,48,0L48,0z"/>
		<path opacity="0.54" d="M24.92,50.72c-6.69-1.96-9.73-4.25-11.16-5.62c-1.33-1.27-1.14-2.54-0.67-3.16c0.75-1,2.45-1.24,4.08-0.09
			c1.99,1.4,7.67,6.04,16.13,7.65c0,0,0.29,0.07,0.29-0.13c0-0.12-0.23-0.21-0.69-0.46c-2.86-1.52-5.85-3.4-7.46-4.74
			c-5.4-4.53-6.82-8.57-7.21-10.58c-0.44-2.31,0.6-3,1.13-3.35c1.14-0.74,2.65-0.5,3.47,1.16c1.18,2.4,3.37,10.24,12.33,13.93
			c5.33,2.19,11.59,1.79,17.75,1.34c1.92-0.14,3.46,0.47,4.83,2.03c4.48,5.09,11.66,6.26,18.1,3.66c2.15-0.87,3.29-0.3,3.72,0.52
			c0.55,1.07-0.1,2.35-2.08,3.34c-2.95,1.47-13.5,3.13-21.98-3.98C55.52,52.25,42.56,55.88,24.92,50.72z M60.56,49.47
			c1.77,1.11,3.81,0.53,4.75-1.01c0.75-1.24,0.51-3.53-1.55-4.84c-1.82-1.15-3.5-0.3-4.02,0.15C57.78,45.46,58.6,48.25,60.56,49.47z
			 M71.04,45.96c0.39-2.14,2.54-3.55,5.05-3.01c2.78,0.6,4.82,3.3,3.26,6.01c-0.41,0.73-1.83,2.28-4.53,1.81
			C72.48,50.36,70.63,48.28,71.04,45.96z M72.36,47.29c0.29,1.58,1.8,2.66,3.56,2.37c1.85-0.3,2.47-1.76,2.56-2.32
			c0.35-2.09-1.51-3.64-3.62-3.35C73.13,44.24,72.1,45.83,72.36,47.29z M83.18,62.52c-0.16-0.26-0.74-0.54-2.35-0.67
			c-0.99-0.08-1.91,0.05-2.87,0.63c-0.75,0.45-1.91,1.8-3.79,2.03c-1.97,0.25-3.7-0.37-5.27-1.51c-1.34-0.97-2.62-1.98-4.27-2.33
			c-2.06-0.45-4.29-0.02-6.22,0.72c-1.95,0.74-3.8,1.72-5.83,2.26c-5.51,1.47-6.81-0.86-9.17-1.11c-2.38-0.25-3.27,1.13-5.81,1.52
			c-1.38,0.21-4.31,0.45-8.2-3.43c-3.8-3.78-8.64-3.89-9.67-3.6c-0.49,0.14-0.95,0.52-0.72,1.08c0.28,0.67,1.3,0.73,1.9,0.74
			c2.65,0.04,5.1-0.03,8.45,3.17c1.48,1.41,3.26,2.67,5.29,3.14c0.91,0.21,1.85,0.22,2.77,0.06c1.15-0.2,2.14-0.75,3.23-1.11
			c2.75-0.93,3.96,0.54,5.86,1.08c2.02,0.58,4.16,0.31,6.13-0.36c2.01-0.68,3.86-1.75,5.87-2.41c1.98-0.65,4.1-0.77,6.13-0.31
			c2.83,0.64,3.83,1.98,5.02,2.71c1.95,1.21,3.68,1.76,5.46,0.92c2.01-0.95,2.66-3.14,5.3-2.68c0.64,0.12,1.3,0.42,1.96,0.37
			C82.77,63.41,83.5,63.04,83.18,62.52z"/>
	</g>
</g>
</svg>
