<?xml version="1.0" encoding="utf-8"?>
<!-- Generator: Adobe Illustrator 18.1.1, SVG Export Plug-In . SVG Version: 6.00 Build 0)  -->
<!DOCTYPE svg PUBLIC "-//W3C//DTD SVG 1.1//EN" "http://www.w3.org/Graphics/SVG/1.1/DTD/svg11.dtd">
<svg version="1.1" id="Icon" xmlns="http://www.w3.org/2000/svg" xmlns:xlink="http://www.w3.org/1999/xlink" x="0px" y="0px"
	 width="96px" height="96px" viewBox="0 0 96 96" enable-background="new 0 0 96 96" xml:space="preserve">
<g id="Grey">
	<g id="Rugby_Sevens_2_">
		<path opacity="0.05" d="M48,0C35.18,0,23.12,4.99,14.06,14.06S0,35.18,0,48c0,12.82,4.99,24.88,14.06,33.94
			C23.12,91.01,35.18,96,48,96c12.82,0,24.88-4.99,33.94-14.06C91.01,72.88,96,60.82,96,48c0-12.82-4.99-24.88-14.06-33.94
			C72.88,4.99,60.82,0,48,0L48,0z"/>
		<path opacity="0.54" d="M67.48,40.37c-1.9-1.5-1.87-3.81-0.99-4.95c1.09-1.42,3.17-1.75,4.8-0.47c1.8,1.42,2.3,4.27,0.18,5.72
			C70.91,41.05,69.22,41.74,67.48,40.37z M67.04,49.08c0.07,1.65-0.18,2.36-0.18,2.36s-0.8,2.88-4.13,2.08
			c-1.19-0.28-2.15-1.13-2.73-2.23c-3.13-0.6-4.99-2.84-4.97-3.74c0.06-0.71,2.68-3.03,6.27-3.16c-0.04-0.32-0.23-1.22-0.53-1.92
			c-3.13,0.16-8.41,1.65-10.17,2.98c2.57,2.91,5.16,6.65,5.72,10.2c0.49,3.12-0.8,5.07-1.94,5.94c-0.65,0.5-1.66,0.6-3.01,0.3
			c-1.78-0.39-5.51-1.18-8.83-0.75c-2.41,1.75-8.57,5.49-15.41,8.67c-1.66,0.77-3.85-0.22-3.98-2.11c-0.07-1.07,1.23-1.69,2.11-2.03
			c4.71-1.82,8.86-3.82,11.29-5.3c1.65-1,3.04-1.94,3.64-4.17c0.89-3.28,0.75-7.86,0.36-12.05c-0.05-0.54-0.04-1.46,0.28-2.04
			c0,0,0-0.01,0-0.01c1.48-3.57,11.78-6.28,17.08-7.4c-1.87-4.38-3.88-6.64-8.49-3.44c-1.09,0.76-2.49,2.61-3.82,2.43
			c-1.12-0.16-0.89-1.38-0.26-2.35c1.37-2.09,3.88-3.85,6.11-4.87c5.69-2.59,11.28,3.95,15.16,19.37c0.89,0.66,1.4,1.13,1.44,1.64
			C68.09,47.89,67.61,48.57,67.04,49.08z M45.01,57.98c1.26-0.04,2.54,0,3.85,0.06c1.69,0.07,1.46-1.84,1.18-2.9
			c-0.51-1.95-2.13-3.83-3.7-5.2C46.35,50.14,46.38,55.04,45.01,57.98z M67.13,47.61c0.05-0.82-2.49-2.2-5.33-2.21
			c-2.19-0.01-5.13,1.47-5.14,2.56c0,0.57,1.19,1.62,2.87,2.12c0,0,0,0,0,0c-0.7-2.42,0.94-3.29,1.75-3.49
			c0.7-0.18,2.56-0.31,2.53,2.43c0,0.52,0.09,0.85,0.24,1.04C66.19,49.48,67.05,48.22,67.13,47.61z"/>
	</g>
</g>
</svg>
