<?xml version="1.0" encoding="utf-8"?>
<!-- Generator: Adobe Illustrator 18.1.1, SVG Export Plug-In . SVG Version: 6.00 Build 0)  -->
<!DOCTYPE svg PUBLIC "-//W3C//DTD SVG 1.1//EN" "http://www.w3.org/Graphics/SVG/1.1/DTD/svg11.dtd">
<svg version="1.1" id="Icon" xmlns="http://www.w3.org/2000/svg" xmlns:xlink="http://www.w3.org/1999/xlink" x="0px" y="0px"
	 width="96px" height="96px" viewBox="0 0 96 96" enable-background="new 0 0 96 96" xml:space="preserve">
<g id="Grey">
	<g id="Sailing_2_">
		<path opacity="0.05" d="M48,0C35.18,0,23.12,4.99,14.06,14.06S0,35.18,0,48c0,12.82,4.99,24.88,14.06,33.94
			C23.12,91.01,35.18,96,48,96c12.82,0,24.88-4.99,33.94-14.06C91.01,72.88,96,60.82,96,48c0-12.82-4.99-24.88-14.06-33.94
			C72.88,4.99,60.82,0,48,0L48,0z"/>
		<path opacity="0.54" d="M27.82,50.06c-0.86-2.21,0.31-4.15,1.61-4.67c1.63-0.66,3.55,0.09,4.29,1.98
			c0.81,2.09-0.18,4.74-2.68,4.92C30.37,52.33,28.61,52.08,27.82,50.06z M85.91,61.79c-0.47,0.53-1.15,0.57-1.75,0.48
			c-2.58-0.6-6.54-0.91-9.72-0.7C67.97,62,61.8,63.52,54.4,67.03c-1.42,0.67-2.86,1.29-4.31,1.85c-0.15,0.78-0.42,1.68-0.93,2.33
			c-2.47,3.14-7.28,1.87-10.05,0.64c-7.98,1.27-16.1,0.64-23.93-2.31c-0.55-0.2-0.95-0.22-0.61,0.07c7.42,6.27,21.92,7.37,33.3,4.49
			c9.33-2.36,19.28-7.65,29.99-7.41c2.61,0.06,5.57,1.06,4.07,2.13c-0.61,0.43-2.48,0.6-4.17,0.9
			c-14.77,2.63-23.43,8.11-34.37,11.77c-11.51,3.85-24.18,1.22-28.43-0.42c-3.93-1.52-3.08-4.07-0.45-2.85
			c10.38,4.79,21.49,4.57,29.65,1.96c9.24-2.95,21.33-9.63,31.47-11.3c0.8-0.14,0.05-0.41-1.44-0.4
			c-10.56,0.08-26.38,8.05-40.81,8.61c-7.53,0.29-18.21-2.86-22.84-8.73c-0.96-1.22-1.51-3.45,3.16-1.43
			c6.9,2.98,14.93,4.19,22.94,3.55c-2.45-1.64-4.9-4.17-6.55-7.62c-1.73-3.62-2.32-8.03,0.17-9.25c1.3-0.64,2.59-0.4,4.19,0.46
			c2.96,1.58,8.44,2.65,14.02-0.54c-0.93-0.73-1.51-1.5-1.49-2.61c0.03-1.87,2.13-11.57,9.04-24.67c4.32-8.2,8.13-13.75,10.65-13.75
			c2.46,0,6.28,5.84,8.12,11.09c3.43,9.83,4.89,18.72,2.76,30.56c-0.29,1.14-1,1.34-1.61,1.11c-0.58-0.22-0.61-0.67-0.57-1.21
			c3.72-18.97-1.56-28.91-3.22-32.59c-2.02-4.49-4.31-6.74-5.64-6.87c-0.62-0.06-1.47,0.41-2.21,1.38
			C53.66,29.79,49.36,46.23,48.99,49.11c-0.12,0.92-0.42,2.41,0.94,3.51c0.32-0.23,0.64-0.47,0.96-0.72
			c1.52-1.22,3.27,0.96,2.38,2.86c2.12,1.05,4.96,2.1,8.41,2.94c8.84,2.13,18.52,1.88,22.58,2.75
			C85.44,60.69,86.62,61.01,85.91,61.79z M71.05,60.35C67,60.03,58.32,58.41,52.42,55.8c-0.1,0.08-0.2,0.15-0.32,0.23
			c-6.97,4.56-13.96,2.7-16.69,1.71c1.23,4.86,5.07,9.4,8.33,9.13c1.95-0.15,2.78-2.89,4.75-3.78c2.76-1.25,5.5,2.34,5.83,2.79
			C60.15,63.5,65.35,61.3,71.05,60.35z"/>
	</g>
</g>
</svg>
