<?xml version="1.0" encoding="utf-8"?>
<!-- Generator: Adobe Illustrator 18.1.1, SVG Export Plug-In . SVG Version: 6.00 Build 0)  -->
<!DOCTYPE svg PUBLIC "-//W3C//DTD SVG 1.1//EN" "http://www.w3.org/Graphics/SVG/1.1/DTD/svg11.dtd">
<svg version="1.1" id="Icon" xmlns="http://www.w3.org/2000/svg" xmlns:xlink="http://www.w3.org/1999/xlink" x="0px" y="0px"
	 width="96px" height="96px" viewBox="0 0 96 96" enable-background="new 0 0 96 96" xml:space="preserve">
<g id="Grey">
	<g id="Weightlifting_2_">
		<path opacity="0.05" d="M48,0C35.18,0,23.12,4.99,14.06,14.06S0,35.18,0,48c0,12.82,4.99,24.88,14.06,33.94
			C23.12,91.01,35.18,96,48,96c12.82,0,24.88-4.99,33.94-14.06C91.01,72.88,96,60.82,96,48c0-12.82-4.99-24.88-14.06-33.94
			C72.88,4.99,60.82,0,48,0L48,0z"/>
		<path opacity="0.54" d="M58.39,36.23c1.74-0.04,3.23,1.41,3.2,3.43c-0.04,2.23-1.94,4.29-4.3,3.52c-0.63-0.2-2.06-1.1-2.13-3.25
			C55.1,38.11,56.51,36.28,58.39,36.23z M65.66,71.87c-1.2,2.13-2.81,4.64-3.69,5.76c-0.79,1-2.06,1.45-3.46,1.12
			c-1.71-0.41-1.97-1.99-0.76-3.51c1.89-2.39,7.81-9.28,5.82-10.4c-0.94-0.53-5.11-0.78-9.72,0.22c-1.84,3.64-3.91,6.01-6.74,8.33
			c-2.5,2.05-8.54,5.12-14.76,5.62c-3.56,0.28-5.49-1.07-5.2-2.77c0.33-1.9,2.65-1.76,4.45-1.77c2.7-0.01,7.15-0.5,10.92-3.22
			c5.81-4.19,7.62-14.55,8.21-19c0.82-6.3-2.51-9.85-4.13-15.74c-0.6-2.18-0.93-4.28-0.83-5.84c-2.51-1.16-4.42-3.58-4.69-6.4
			c-0.39-4.08,2.74-7.45,6.85-7.29c3.87,0.15,7.35,3.29,7.72,7.18c0.38,3.97-2.61,7.21-6.54,7.25c-0.21,4.95,4.77,10.09,6.65,12.21
			c2.02,2.28,2.32,4.3,2.24,7.15c-0.06,1.93-0.92,5.21-2.02,7.99c7.81,0.12,11.68,1.73,12.64,4.08
			C69.62,65.26,67.49,68.63,65.66,71.87z M50.95,29.78c3.13-1.38,4.23-5.42,2.66-8.37c-1.51-2.84-4.89-3.89-7.79-2.55
			c-3.07,1.4-4.22,5.4-2.65,8.33C44.69,30.06,48.03,31.07,50.95,29.78z M49.46,25.82c-0.64,0.24-1.72,0.37-2.11-0.63
			c-0.24-0.62-0.25-1.6,0.6-2.05c0.16-0.09,0.69-0.25,0.59-0.64c-0.13-0.47-0.63-0.4-0.94-0.26c-1.61,0.76-1.46,2.47-1.08,3.21
			c0.41,0.8,1.14,1.12,1.77,1.17c0.56,0.05,1.01-0.04,1.37-0.22c0,0,0.65-0.31,0.41-0.67C49.97,25.56,49.51,25.81,49.46,25.82z"/>
	</g>
</g>
</svg>
